<?xml version="1.0" encoding="UTF-8"?>
<svg id="Layer_2" data-name="Layer 2" xmlns="http://www.w3.org/2000/svg" viewBox="0 0 806.2 473.52">
  <g id="Records_Path" data-name="Records Path">
    <g>
      <g>
        <g>
          <path d="m8,358.17V8h210.85v55.73H74.98v87.07h137.17v54.39H74.98v97.25h143.87v55.73H8Z"/>
          <path d="m226.85,366.17H0V0h226.85v71.73H82.98v71.07h137.17v70.39H82.98v81.25h143.87v71.73Zm-210.85-16h194.85v-39.73H66.98v-113.25h137.17v-38.39H66.98V55.73h143.87V16H16v334.17Z"/>
        </g>
        <g>
          <path d="m446.62,358.17h-87.34L252.38,8h74.75l59.21,210.85,19.02,69.12,19.83-73.14L483.86,8h70.19l-107.44,350.17Z"/>
          <path d="m452.53,366.17h-99.18L241.57,0h91.62l60.85,216.69,11.26,40.92,12.16-44.87L477.81,0h87.06l-112.34,366.17Zm-87.33-16h75.5L543.23,16h-53.33l-57.02,201.02-27.46,101.32-26.79-97.36-57.56-204.97h-57.88l102.01,334.17Z"/>
        </g>
        <g>
          <path d="m587.35,358.17v-55.73h143.87s0-97.25,0-97.25h-137.17v-54.39h137.17s0-87.07,0-87.07h-143.87V8h210.85v350.17h-210.85Z"/>
          <path d="m806.2,366.17h-226.85v-71.73h143.87v-81.25h-137.17v-70.39h137.17v-71.07h-143.87V0h226.85v366.17Zm-210.85-16h194.85V16h-194.85v39.73h143.87v103.07h-137.17v38.39h137.17v113.25h-143.87v39.73Z"/>
        </g>
      </g>
      <g>
        <path d="m6.64,401.74h12.99v71.04H6.64v-71.04Zm5.17,29.59h23.99c1.33,0,2.5-.34,3.51-1.03,1.01-.68,1.79-1.66,2.35-2.93.55-1.27.85-2.73.88-4.39,0-1.66-.28-3.12-.83-4.39-.55-1.27-1.34-2.25-2.35-2.93-1.01-.68-2.2-1.03-3.56-1.03H11.81v-12.89h25.03c3.79,0,7.13.88,10,2.64,2.88,1.76,5.1,4.24,6.68,7.45,1.58,3.21,2.37,6.93,2.37,11.16s-.79,7.95-2.37,11.16c-1.58,3.21-3.82,5.69-6.71,7.45-2.89,1.76-6.22,2.64-9.98,2.64H11.81v-12.89Zm14.51,10.69l13.89-2.25,18.58,33.01h-15.74l-16.73-30.76Z"/>
        <path d="m133.04,401.79h12.99v71h-12.99v-71Zm4.69,0h41.48v12.89h-41.48v-12.89Zm0,29.3h36.27v12.89h-36.27v-12.89Zm0,28.81h41.48v12.89h-41.48v-12.89Z"/>
        <path d="m264.23,470.42c-3.73-2.07-6.57-5.08-8.53-9.03-1.96-3.96-2.94-8.73-2.94-14.33v-19.48c0-5.6.98-10.38,2.94-14.33,1.96-3.96,4.8-6.97,8.53-9.06,3.73-2.08,8.22-3.12,13.46-3.12,4.33,0,8.2.96,11.62,2.88,3.41,1.92,6.23,4.71,8.46,8.37,2.23,3.66,3.77,8.08,4.62,13.26h-13.46c-.51-2.34-1.29-4.35-2.35-6.01-1.06-1.66-2.34-2.93-3.84-3.81-1.5-.88-3.18-1.32-5.05-1.32-2.43,0-4.5.51-6.21,1.54-1.71,1.03-3.01,2.52-3.91,4.49-.9,1.97-1.35,4.34-1.35,7.1v19.48c0,2.77.45,5.13,1.35,7.08s2.2,3.44,3.91,4.47c1.71,1.03,3.78,1.54,6.21,1.54,1.9,0,3.6-.43,5.12-1.29,1.52-.86,2.8-2.12,3.84-3.78s1.8-3.68,2.28-6.05h13.46c-.89,5.18-2.44,9.59-4.67,13.26-2.23,3.66-5.04,6.45-8.44,8.37-3.4,1.92-7.26,2.88-11.59,2.88-5.25,0-9.73-1.03-13.46-3.1Z"/>
        <path d="m386.01,470.27c-3.81-2.16-6.76-5.22-8.84-9.18s-3.13-8.54-3.13-13.75v-20.12c0-5.21,1.04-9.79,3.13-13.75s5.03-7.01,8.84-9.18c3.81-2.16,8.21-3.25,13.2-3.25s9.39,1.08,13.2,3.25c3.81,2.17,6.76,5.22,8.84,9.18,2.09,3.96,3.13,8.54,3.13,13.75v20.12c0,5.21-1.04,9.79-3.13,13.75-2.09,3.96-5.03,7.02-8.84,9.18-3.81,2.17-8.21,3.25-13.2,3.25s-9.4-1.08-13.2-3.25Zm19.37-11.67c1.77-1.03,3.14-2.48,4.1-4.37.96-1.89,1.45-4.07,1.45-6.54v-20.8c0-2.47-.48-4.65-1.45-6.54-.96-1.89-2.33-3.34-4.1-4.37-1.77-1.03-3.82-1.54-6.16-1.54s-4.39.51-6.16,1.54c-1.77,1.03-3.14,2.48-4.1,4.37-.96,1.89-1.45,4.07-1.45,6.54v20.8c0,2.47.48,4.66,1.45,6.54.96,1.89,2.33,3.34,4.1,4.37,1.77,1.03,3.82,1.54,6.16,1.54s4.39-.51,6.16-1.54Z"/>
        <path d="m500.3,401.74h12.99v71.04h-12.99v-71.04Zm5.17,29.59h23.99c1.33,0,2.5-.34,3.51-1.03s1.79-1.66,2.35-2.93.85-2.73.88-4.39c0-1.66-.28-3.12-.83-4.39-.55-1.27-1.34-2.25-2.35-2.93-1.01-.68-2.2-1.03-3.56-1.03h-23.99v-12.89h25.03c3.79,0,7.13.88,10,2.64s5.1,4.24,6.68,7.45c1.58,3.21,2.37,6.93,2.37,11.16s-.79,7.95-2.37,11.16c-1.58,3.21-3.82,5.69-6.71,7.45s-6.22,2.64-9.98,2.64h-25.03v-12.89Zm14.51,10.69l13.89-2.25,18.58,33.01h-15.74l-16.73-30.76Z"/>
        <path d="m626.69,401.79h12.99v71h-12.99v-71Zm6.54,58.11h16.54c4.27,0,7.57-1.06,9.91-3.17,2.34-2.12,3.51-5.11,3.51-8.98v-20.9c0-3.87-1.17-6.87-3.51-8.98-2.34-2.12-5.64-3.17-9.91-3.17h-16.54v-12.89h16.26c5.75,0,10.66.99,14.72,2.98,4.06,1.99,7.15,4.88,9.27,8.69s3.18,8.4,3.18,13.77v20.12c0,5.11-1.02,9.57-3.06,13.38-2.04,3.81-5.1,6.77-9.17,8.89-4.08,2.12-9.07,3.17-14.98,3.17h-16.21v-12.89Z"/>
        <path d="m763.64,472.49c-3.15-.68-6.1-1.68-8.87-3-2.77-1.32-5.24-2.91-7.42-4.76l6.02-11.04c2.65,2.25,5.72,3.98,9.2,5.2s7.05,1.83,10.71,1.83c4.23,0,7.52-.74,9.86-2.22,2.34-1.48,3.51-3.57,3.51-6.27v-.05c0-1.89-.52-3.38-1.56-4.49-1.04-1.11-2.4-1.92-4.08-2.44-1.68-.52-3.82-.99-6.45-1.42-.09-.03-.18-.05-.26-.05s-.17-.02-.26-.05l-1.04-.15c-4.62-.75-8.44-1.68-11.47-2.81-3.03-1.12-5.61-3.09-7.73-5.91-2.12-2.82-3.18-6.81-3.18-11.99v-.05c0-4.59,1-8.51,2.99-11.77,1.99-3.25,4.88-5.74,8.68-7.45,3.79-1.71,8.38-2.56,13.75-2.56,2.46,0,4.98.29,7.56.88,2.58.59,5.1,1.43,7.56,2.54,2.46,1.11,4.8,2.44,7.02,4l-5.5,11.33c-2.65-1.89-5.43-3.35-8.32-4.39-2.89-1.04-5.67-1.56-8.32-1.56-3.98,0-7.06.68-9.25,2.03-2.18,1.35-3.27,3.25-3.27,5.69v.05c0,2.05.57,3.67,1.71,4.86,1.14,1.19,2.54,2.06,4.22,2.61,1.67.55,4.03,1.14,7.06,1.76.13.03.25.06.38.07.13.02.25.04.38.07.19.03.37.07.54.12.17.05.36.09.54.12,4.36.88,8,1.95,10.93,3.2,2.92,1.25,5.36,3.27,7.32,6.05s2.94,6.58,2.94,11.4v.1c0,4.53-1.03,8.4-3.08,11.62-2.05,3.22-5.05,5.68-8.98,7.37-3.93,1.69-8.67,2.54-14.2,2.54-3.29,0-6.5-.34-9.65-1.03Z"/>
      </g>
    </g>
  </g>
</svg>